<svg version="1.1" id="Layer_1" xmlns="http://www.w3.org/2000/svg" xmlns:xlink="http://www.w3.org/1999/xlink" x="0px" y="0px"
	 width="500px" height="500px" viewBox="0 0 500 500" enable-background="new 0 0 500 500" xml:space="preserve">
<g>
	<path fill="#FFFFFF" d="M236.268,170.3c-46.622,0-60.811,42.061-60.811,78.041c0,41.555,12.669,96.791,63.345,96.791
		c47.128,0,60.811-54.729,60.811-87.162C299.612,214.895,290.491,170.3,236.268,170.3z"/>
	<path fill="#FFFFFF" d="M0,0v500h500V0H0z M237.788,412.024c-97.298,0-146.454-62.331-146.454-156.589
		c0-100.339,60.304-151.521,146.454-151.521c96.791,0,146.96,49.663,146.96,150.001C384.748,351.72,321.91,412.024,237.788,412.024z
		"/>
</g>
</svg>