<svg width="103" height="88" viewBox="0 0 103 88" fill="none" xmlns="http://www.w3.org/2000/svg">
<path d="M77.9757 27.0047L77.2652 27.7106L77.9757 27.0047ZM57.3246 18.4384C56.9092 18.8047 56.8748 19.4301 57.2478 19.8352L63.3264 26.4377C63.6995 26.8428 64.3386 26.8743 64.754 26.508C65.1694 26.1417 65.2038 25.5164 64.8308 25.1112L59.4276 19.2424L65.445 13.9365C65.8604 13.5702 65.8948 12.9448 65.5218 12.5396C65.1488 12.1345 64.5096 12.103 64.0942 12.4693L57.3246 18.4384ZM84.0448 41C85.035 41.1959 85.0351 41.1953 85.0352 41.1946C85.0353 41.1944 85.0354 41.1937 85.0355 41.1932C85.0357 41.1922 85.036 41.1911 85.0362 41.1899C85.0367 41.1875 85.0373 41.1847 85.0379 41.1814C85.0392 41.1749 85.0408 41.1667 85.0427 41.1569C85.0464 41.1373 85.0511 41.1111 85.0566 41.0786C85.0675 41.0135 85.0812 40.9229 85.0951 40.8084C85.123 40.5794 85.1519 40.2544 85.1608 39.846C85.1787 39.0293 85.117 37.8778 84.8076 36.4944C84.1866 33.7174 82.5764 30.0461 78.6862 26.2988L77.2652 27.7106C80.8678 31.1808 82.2921 34.507 82.8324 36.9234C83.1038 38.1366 83.1544 39.1307 83.1395 39.8103C83.132 40.1502 83.1082 40.411 83.0875 40.5809C83.0772 40.6658 83.0676 40.7279 83.0613 40.7656C83.0582 40.7845 83.0558 40.7973 83.0546 40.8037C83.054 40.807 83.0536 40.8086 83.0536 40.8087C83.0536 40.8087 83.0537 40.8084 83.0539 40.8076C83.0539 40.8072 83.054 40.8067 83.0542 40.8062C83.0542 40.8059 83.0543 40.8053 83.0544 40.8052C83.0545 40.8047 83.0546 40.8041 84.0448 41ZM78.6862 26.2988C74.7623 22.5192 69.5766 20.5024 65.4411 19.426C63.3634 18.8853 61.5263 18.5756 60.2065 18.4009C59.546 18.3134 59.0137 18.2596 58.6438 18.2274C58.4588 18.2114 58.3144 18.2007 58.2147 18.194C58.1649 18.1907 58.1263 18.1883 58.0993 18.1867C58.0859 18.186 58.0754 18.1854 58.0678 18.185C58.0641 18.1848 58.061 18.1846 58.0588 18.1845C58.0577 18.1844 58.0567 18.1844 58.056 18.1844C58.0556 18.1843 58.0552 18.1843 58.055 18.1843C58.0546 18.1843 58.0543 18.1843 58 19.172C57.9457 20.1597 57.9455 20.1597 57.9453 20.1597C57.9453 20.1597 57.9452 20.1597 57.9452 20.1597C57.9452 20.1597 57.9454 20.1597 57.9458 20.1597C57.9465 20.1598 57.9481 20.1598 57.9503 20.16C57.9549 20.1602 57.9623 20.1606 57.9727 20.1612C57.9935 20.1624 58.0259 20.1644 58.0693 20.1673C58.1562 20.1731 58.2872 20.1828 58.4582 20.1976C58.8003 20.2273 59.3017 20.2779 59.9286 20.3609C61.1835 20.5271 62.9354 20.8224 64.9151 21.3376C68.8943 22.3733 73.6964 24.2729 77.2652 27.7106L78.6862 26.2988Z" fill="white"/>
<rect x="103" y="45" width="43" height="90" rx="8" transform="rotate(90 103 45)" fill="white"/>
<rect x="96" y="52" width="29" height="70" rx="5" transform="rotate(90 96 52)" fill="#353535"/>
<ellipse cx="20" cy="58.1778" rx="2.44444" ry="2" transform="rotate(90 20 58.1778)" fill="white"/>
<rect width="55" height="88" rx="8" fill="white"/>
<rect x="8" y="10" width="39" height="68" rx="5" fill="#353535"/>
<ellipse cx="26.5" cy="82.9556" rx="2.5" ry="1.95556" fill="#353535"/>
</svg>
