<?xml version="1.0" encoding="utf-8"?>
<!-- Generator: Adobe Illustrator 16.0.0, SVG Export Plug-In . SVG Version: 6.00 Build 0)  -->
<!DOCTYPE svg PUBLIC "-//W3C//DTD SVG 1.1//EN" "http://www.w3.org/Graphics/SVG/1.1/DTD/svg11.dtd">
<svg version="1.1" id="Layer_1" xmlns="http://www.w3.org/2000/svg" xmlns:xlink="http://www.w3.org/1999/xlink" x="0px" y="0px"
	 width="253.324px" height="292.893px" viewBox="0 0 253.324 292.893" enable-background="new 0 0 253.324 292.893"
	 xml:space="preserve">
<path stroke="#000000" stroke-miterlimit="10" d="M240.824,0.5h-36.946H70.229H26.852v103.817
	C10.393,124.193,0.5,149.704,0.5,177.526c0,63.437,51.427,114.867,114.865,114.867c63.438,0,114.864-51.43,114.864-114.867
	c0-27.822-9.893-53.332-26.351-73.208V62.662h36.946c6.627,0,12-5.373,12-12V12.5C252.824,5.873,247.451,0.5,240.824,0.5z
	 M115.364,226.174c-26.867,0-48.648-21.781-48.648-48.647h97.298C164.014,204.393,142.232,226.174,115.364,226.174z"/>
</svg>
