<?xml version="1.0" encoding="utf-8"?>
<!-- Generator: Adobe Illustrator 17.0.0, SVG Export Plug-In . SVG Version: 6.00 Build 0)  -->
<!DOCTYPE svg PUBLIC "-//W3C//DTD SVG 1.1//EN" "http://www.w3.org/Graphics/SVG/1.1/DTD/svg11.dtd">
<svg version="1.1" id="Layer_1" xmlns="http://www.w3.org/2000/svg" xmlns:xlink="http://www.w3.org/1999/xlink" x="0px" y="0px"
	 width="300px" height="300px" viewBox="0 0 300 300" enable-background="new 0 0 300 300" xml:space="preserve">
<g>
	<path id="XMLID_63_" fill="#FBB040" d="M189.1,250.077c-0.197-3.668-1.316-7.625-3.19-11.993c-0.132-0.311-0.558-0.445-0.948-0.299
		l-0.011,0.004c0,0-1.067,0.404-2.933,1.11c-0.922,0.39-2.089,0.706-3.405,1.144c-0.659,0.214-1.361,0.443-2.1,0.683
		c-0.751,0.198-1.54,0.406-2.364,0.623c-0.825,0.21-1.674,0.473-2.569,0.674c-0.897,0.19-1.825,0.387-2.778,0.589
		c-0.476,0.104-0.959,0.209-1.448,0.316c-0.493,0.078-0.993,0.158-1.498,0.238c-1.009,0.165-2.041,0.334-3.089,0.506
		c-1.289,0.154-2.612,0.291-3.949,0.415c-1.504,0.873-2.909,1.739-4.124,2.874c-1.23,1.155-2.278,2.407-3.049,4.006
		c-0.77,1.591-1.266,3.485-1.357,5.771l-0.036,0.037l-0.848,0.768l-0.839-0.757v-0.004l-0.031-0.034
		c-0.141-4.575-1.862-7.619-4.292-9.831c-1.202-1.132-2.589-2.096-4.088-2.932c-5.711-0.607-11.046-1.67-15.319-2.912
		c-1.638-0.474-3.151-0.869-4.452-1.354c-1.306-0.463-2.471-0.793-3.39-1.177c-1.852-0.728-2.911-1.144-2.911-1.144l-0.011-0.004
		c-0.383-0.149-0.809-0.02-0.945,0.29c-1.922,4.347-3.087,8.292-3.327,11.958c-0.121,1.833-0.013,3.595,0.336,5.298
		c0.175,0.85,0.407,1.692,0.705,2.507c0.305,0.796,0.671,1.577,1.1,2.342c3.02,5.576,8.86,9.186,14.791,12.272
		c1.127,0.577,2.246,1.15,3.364,1.722c2.248,1.056,4.448,2.177,6.5,3.372c2.059,1.142,3.962,2.461,5.61,4.013
		c3.289,2.993,5.619,7.114,5.809,13.305l0.042,0.046v0.005l1.135,1.025l1.147-1.039l0.049-0.05c0.124-3.094,0.795-5.657,1.837-7.81
		c1.043-2.164,2.462-3.859,4.127-5.422c1.665-1.555,3.592-2.737,5.656-3.934c1.032-0.597,2.103-1.156,3.198-1.691l1.66-0.784
		l1.676-0.839c1.126-0.547,2.255-1.095,3.39-1.646c5.965-3.043,11.826-6.613,14.919-12.128c0.882-1.492,1.486-3.136,1.853-4.838
		C189.071,253.67,189.2,251.91,189.1,250.077z"/>
	<path id="XMLID_62_" fill="#FBB040" d="M112.65,236.797l-0.011-0.005c0,0-1.038-0.466-2.854-1.281
		c-0.917-0.389-1.968-0.991-3.212-1.6c-1.256-0.591-2.596-1.397-4.081-2.236c-3.871-2.183-8.354-5.255-12.776-8.908
		c-1.649-0.489-3.312-0.808-4.966-0.875c-3.279-0.191-6.659,0.708-10.029,3.808l-0.052,0.001l-1.128-0.07l-0.044-1.143l0.003-0.002
		l0.002-0.046c1.57-1.663,2.576-3.342,3.175-5.005c0.604-1.669,0.766-3.294,0.731-4.982c-0.038-1.663-0.402-3.274-0.83-4.96
		c-0.847-1.044-1.676-2.087-2.468-3.117c-0.61-0.87-1.211-1.725-1.798-2.562c-0.296-0.417-0.588-0.83-0.877-1.238
		c-0.265-0.424-0.527-0.843-0.786-1.256c-0.523-0.823-1.031-1.623-1.522-2.398c-0.482-0.78-0.888-1.571-1.315-2.308
		c-0.421-0.74-0.824-1.45-1.208-2.125c-0.345-0.697-0.673-1.358-0.98-1.979c-0.608-1.246-1.197-2.302-1.563-3.234
		c-0.8-1.828-1.258-2.873-1.258-2.873l-0.005-0.011c-0.167-0.377-0.56-0.588-0.875-0.464c-4.433,1.715-8.045,3.681-10.805,6.104
		c-1.38,1.21-2.549,2.533-3.505,3.983c-0.96,1.452-1.713,3.034-2.162,4.709c-1.782,6.064-0.233,12.754,1.763,19.146
		c0.4,1.197,0.797,2.387,1.194,3.574l0.573,1.786l0.601,1.736c0.385,1.157,0.733,2.314,1.028,3.47
		c0.588,2.313,1.091,4.518,1.143,6.797c0.047,2.284-0.172,4.483-0.989,6.742c-0.811,2.25-2.172,4.522-4.297,6.773l-0.003,0.062
		l-0.003,0.003l0.059,1.547l1.526,0.095l0.07-0.001c4.56-4.195,9.135-5.412,13.573-5.154c2.262,0.092,4.535,0.53,6.79,1.203
		c2.289,0.631,4.627,1.42,6.953,2.287c1.191,0.399,2.383,0.798,3.583,1.2c6.354,2.082,13.014,3.729,19.116,1.992
		c0.846-0.229,1.66-0.513,2.442-0.852c0.791-0.357,1.555-0.78,2.285-1.249c1.461-0.942,2.797-2.097,4.023-3.465
		c2.454-2.735,4.46-6.326,6.224-10.74C113.234,237.363,113.028,236.968,112.65,236.797z"/>
	<path id="XMLID_61_" fill="#FBB040" d="M62.211,184.95c0,0-0.403-1.067-1.11-2.933c-0.39-0.922-0.706-2.089-1.144-3.405
		c-0.214-0.659-0.443-1.361-0.683-2.1c-0.198-0.751-0.406-1.54-0.623-2.364c-0.21-0.825-0.474-1.674-0.674-2.57
		c-0.19-0.897-0.386-1.825-0.589-2.778c-0.104-0.476-0.209-0.959-0.316-1.448c-0.079-0.494-0.158-0.993-0.238-1.498
		c-0.165-1.009-0.334-2.04-0.506-3.089c-0.154-1.289-0.291-2.612-0.415-3.949c-0.873-1.504-1.739-2.909-2.874-4.124
		c-1.155-1.23-2.407-2.278-4.006-3.049c-1.591-0.77-3.484-1.266-5.771-1.357l-0.037-0.036l-0.768-0.848l0.757-0.839l0.004,0
		l0.034-0.031c4.575-0.141,7.619-1.862,9.831-4.292c1.132-1.202,2.096-2.589,2.932-4.088c0.607-5.711,1.67-11.046,2.912-15.319
		c0.474-1.638,0.869-3.151,1.354-4.451c0.463-1.306,0.793-2.471,1.177-3.39c0.728-1.852,1.144-2.911,1.144-2.911l0.004-0.011
		c0.149-0.383,0.02-0.809-0.29-0.945c-4.347-1.922-8.292-3.087-11.958-3.327c-1.833-0.121-3.595-0.013-5.298,0.336
		c-0.85,0.175-1.692,0.407-2.507,0.705c-0.796,0.305-1.577,0.671-2.342,1.1c-5.576,3.02-9.186,8.859-12.272,14.791
		c-0.577,1.127-1.15,2.246-1.722,3.364c-1.057,2.248-2.177,4.448-3.372,6.5c-1.142,2.059-2.461,3.962-4.013,5.61
		c-2.993,3.289-7.114,5.619-13.305,5.809l-0.046,0.042l-0.005,0l-1.025,1.135l1.039,1.147l0.05,0.049
		c3.094,0.124,5.657,0.795,7.81,1.837c2.165,1.043,3.859,2.462,5.422,4.127c1.555,1.665,2.737,3.592,3.935,5.656
		c0.597,1.032,1.156,2.103,1.691,3.198l0.784,1.66l0.838,1.677c0.547,1.126,1.095,2.254,1.646,3.39
		c3.042,5.965,6.612,11.826,12.128,14.919c1.492,0.882,3.136,1.486,4.838,1.852c1.697,0.368,3.458,0.496,5.291,0.397
		c3.668-0.197,7.625-1.316,11.993-3.191c0.312-0.132,0.445-0.558,0.299-0.948L62.211,184.95z"/>
	<path id="XMLID_60_" fill="#FBB040" d="M78.106,84.748c0.189-3.279-0.705-6.658-3.806-10.027v-0.05l0.07-1.133l1.143-0.04h0.05
		c1.659,1.57,3.339,2.584,4.998,3.18c1.669,0.606,3.299,0.765,4.988,0.725c1.662-0.029,3.276-0.4,4.966-0.832
		c1.042-0.845,2.082-1.671,3.11-2.461c0.869-0.611,1.725-1.211,2.562-1.798c0.417-0.296,0.83-0.588,1.238-0.877
		c0.424-0.265,0.843-0.528,1.256-0.786c0.823-0.523,1.624-1.031,2.398-1.522c0.78-0.482,1.571-0.888,2.308-1.315
		c0.74-0.421,1.45-0.824,2.125-1.208c0.697-0.345,1.358-0.672,1.979-0.98c1.246-0.608,2.303-1.198,3.234-1.563
		c1.828-0.8,2.873-1.258,2.873-1.258l0.011-0.005c0.377-0.167,0.588-0.56,0.465-0.875c-1.715-4.433-3.681-8.045-6.104-10.805
		c-1.21-1.38-2.533-2.549-3.983-3.505c-1.452-0.96-3.034-1.713-4.709-2.162c-6.064-1.782-12.754-0.234-19.146,1.763
		c-1.197,0.4-2.386,0.797-3.574,1.194l-1.786,0.573l-1.736,0.601c-1.157,0.384-2.314,0.733-3.47,1.028
		c-2.313,0.588-4.518,1.091-6.797,1.143c-2.284,0.047-4.483-0.172-6.742-0.989c-2.25-0.811-4.522-2.172-6.774-4.297l-0.062-0.002
		l-0.004-0.004l-1.547,0.06l-0.095,1.526l0.001,0.07c4.195,4.561,5.412,9.135,5.154,13.573c-0.092,2.262-0.53,4.535-1.203,6.79
		c-0.631,2.289-1.42,4.627-2.287,6.953c-0.399,1.191-0.798,2.383-1.2,3.583c-2.082,6.354-3.729,13.014-1.992,19.116
		c0.229,0.846,0.513,1.66,0.852,2.442c0.357,0.791,0.78,1.555,1.249,2.285c0.942,1.461,2.097,2.797,3.465,4.023
		c2.735,2.454,6.326,4.46,10.74,6.224c0.313,0.127,0.708-0.08,0.88-0.457l0.005-0.011c0,0,0.466-1.038,1.28-2.853
		c0.389-0.917,0.991-1.968,1.6-3.212c0.591-1.256,1.397-2.596,2.236-4.08c2.184-3.872,5.257-8.357,8.911-12.779
		C77.724,88.071,78.037,86.41,78.106,84.748z"/>
	<path id="XMLID_59_" fill="#FBB040" d="M252.785,80.13c-0.4-1.197-0.797-2.387-1.194-3.574l-0.573-1.786l-0.601-1.736
		c-0.385-1.157-0.733-2.314-1.028-3.47c-0.588-2.313-1.09-4.518-1.143-6.797c-0.047-2.284,0.172-4.483,0.989-6.742
		c0.811-2.25,2.173-4.522,4.297-6.773l0.002-0.062l0.004-0.003l-0.06-1.547l-1.526-0.095l-0.07,0.001
		c-4.56,4.195-9.135,5.412-13.573,5.154c-2.262-0.092-4.535-0.53-6.79-1.203c-2.289-0.631-4.627-1.42-6.954-2.287
		c-1.191-0.399-2.383-0.798-3.583-1.2c-6.354-2.082-13.014-3.729-19.116-1.992c-0.846,0.229-1.66,0.513-2.442,0.852
		c-0.791,0.357-1.555,0.78-2.285,1.249c-1.461,0.942-2.797,2.097-4.023,3.465c-2.454,2.735-4.46,6.326-6.224,10.74
		c-0.127,0.313,0.08,0.708,0.457,0.879l0.011,0.005c0,0,1.038,0.466,2.853,1.281c0.917,0.389,1.968,0.991,3.212,1.6
		c1.256,0.591,2.596,1.397,4.08,2.236c3.87,2.183,8.351,5.253,12.771,8.904c1.653,0.489,3.316,0.812,4.969,0.881
		c3.279,0.189,6.658-0.706,10.026-3.806l0.06-0.01l1.123,0.08l0.049,1.143h-0.01v0.04c-1.57,1.669-2.574,3.349-3.17,5.008
		c-0.606,1.669-0.775,3.299-0.735,4.978c0.039,1.668,0.399,3.278,0.829,4.963c0.847,1.045,1.677,2.088,2.469,3.119
		c0.611,0.87,1.211,1.725,1.799,2.562c0.295,0.417,0.588,0.83,0.877,1.238c0.265,0.424,0.528,0.843,0.786,1.256
		c0.523,0.823,1.031,1.623,1.522,2.398c0.482,0.78,0.888,1.571,1.315,2.308c0.421,0.741,0.824,1.45,1.208,2.125
		c0.345,0.697,0.673,1.358,0.98,1.979c0.608,1.246,1.197,2.302,1.563,3.234c0.801,1.828,1.258,2.873,1.258,2.873l0.005,0.011
		c0.167,0.377,0.56,0.588,0.875,0.464c4.433-1.715,8.045-3.681,10.805-6.104c1.38-1.21,2.549-2.533,3.505-3.984
		c0.96-1.452,1.713-3.034,2.162-4.709C256.33,93.212,254.782,86.522,252.785,80.13z"/>
	<path id="XMLID_58_" fill="#FBB040" d="M189.865,45.06c-0.175-0.85-0.407-1.692-0.705-2.507c-0.305-0.796-0.671-1.577-1.1-2.342
		c-3.02-5.576-8.859-9.186-14.791-12.272c-1.127-0.577-2.246-1.15-3.363-1.722c-2.248-1.056-4.448-2.177-6.5-3.372
		c-2.059-1.142-3.962-2.461-5.61-4.013c-3.289-2.993-5.619-7.114-5.809-13.305l-0.042-0.046l0-0.005l-1.135-1.025l-1.147,1.039
		l-0.049,0.05c-0.124,3.094-0.795,5.657-1.837,7.81c-1.043,2.165-2.462,3.859-4.127,5.422c-1.665,1.555-3.592,2.737-5.656,3.934
		c-1.032,0.597-2.102,1.156-3.198,1.691l-1.66,0.784l-1.676,0.839c-1.126,0.547-2.255,1.095-3.39,1.646
		c-5.965,3.043-11.826,6.613-14.919,12.128c-0.882,1.492-1.486,3.136-1.853,4.838c-0.368,1.698-0.496,3.458-0.397,5.291
		c0.197,3.668,1.316,7.625,3.191,11.993c0.132,0.311,0.558,0.445,0.948,0.299l0.011-0.004c0,0,1.066-0.404,2.933-1.11
		c0.922-0.39,2.089-0.706,3.405-1.144c0.659-0.214,1.361-0.443,2.1-0.683c0.751-0.198,1.54-0.406,2.364-0.623
		c0.825-0.21,1.674-0.473,2.57-0.674c0.897-0.19,1.825-0.387,2.778-0.589c0.476-0.104,0.959-0.209,1.448-0.316
		c0.493-0.079,0.993-0.158,1.498-0.238c1.009-0.165,2.04-0.334,3.089-0.506c1.291-0.154,2.616-0.291,3.956-0.416
		c1.506-0.872,2.905-1.738,4.12-2.874c1.232-1.153,2.276-2.405,3.051-4.005c0.765-1.59,1.262-3.488,1.352-5.773l0.04-0.04
		l0.845-0.765l0.835,0.755v0.01l0.04,0.03c0.139,4.581,1.858,7.622,4.293,9.828c1.196,1.137,2.587,2.099,4.084,2.936
		c5.71,0.607,11.045,1.669,15.318,2.912c1.638,0.474,3.151,0.869,4.452,1.354c1.306,0.463,2.471,0.793,3.39,1.177
		c1.852,0.728,2.911,1.144,2.911,1.144l0.011,0.004c0.383,0.149,0.81,0.02,0.945-0.29c1.922-4.347,3.087-8.292,3.327-11.958
		C190.322,48.525,190.214,46.763,189.865,45.06z"/>
	<path id="XMLID_57_" fill="#FBB040" d="M294.51,149.662l-0.05-0.049c-3.094-0.124-5.657-0.795-7.81-1.837
		c-2.165-1.043-3.859-2.462-5.422-4.127c-1.555-1.665-2.737-3.592-3.934-5.656c-0.598-1.032-1.156-2.102-1.691-3.198l-0.784-1.66
		l-0.839-1.676c-0.547-1.126-1.095-2.255-1.646-3.39c-3.043-5.965-6.612-11.826-12.128-14.919c-1.492-0.882-3.136-1.486-4.838-1.852
		c-1.697-0.368-3.458-0.496-5.291-0.397c-3.668,0.197-7.625,1.316-11.993,3.191c-0.311,0.132-0.444,0.558-0.299,0.948l0.004,0.011
		c0,0,0.404,1.067,1.11,2.933c0.39,0.922,0.706,2.089,1.144,3.405c0.214,0.659,0.443,1.361,0.683,2.1
		c0.198,0.751,0.406,1.54,0.623,2.364c0.21,0.825,0.474,1.674,0.674,2.57c0.19,0.897,0.387,1.825,0.589,2.778
		c0.104,0.476,0.209,0.959,0.316,1.447c0.079,0.494,0.158,0.993,0.238,1.498c0.165,1.009,0.334,2.04,0.506,3.089
		c0.154,1.289,0.291,2.612,0.415,3.95c0.874,1.5,1.741,2.913,2.87,4.12c1.163,1.232,2.415,2.286,4.015,3.051
		c1.59,0.775,3.478,1.272,5.764,1.361l0.04,0.03l0.765,0.855l-0.755,0.835l-0.04,0.03c-4.571,0.139-7.612,1.868-9.828,4.293
		c-1.13,1.209-2.094,2.593-2.932,4.094c-0.607,5.709-1.669,11.042-2.911,15.314c-0.474,1.638-0.869,3.151-1.354,4.452
		c-0.463,1.306-0.793,2.471-1.177,3.39c-0.728,1.852-1.144,2.911-1.144,2.911l-0.004,0.011c-0.149,0.383-0.02,0.809,0.29,0.945
		c4.347,1.922,8.292,3.087,11.958,3.327c1.833,0.121,3.595,0.013,5.298-0.336c0.85-0.175,1.692-0.407,2.507-0.705
		c0.796-0.305,1.577-0.671,2.342-1.1c5.576-3.02,9.186-8.859,12.272-14.791c0.577-1.127,1.15-2.246,1.722-3.364
		c1.056-2.248,2.176-4.448,3.372-6.5c1.141-2.059,2.461-3.962,4.013-5.61c2.993-3.289,7.114-5.619,13.305-5.809l0.046-0.042l0.005,0
		l1.025-1.135L294.51,149.662z"/>
	<path id="XMLID_56_" fill="#FBB040" d="M247.3,238.308c0.092-2.262,0.53-4.535,1.203-6.79c0.631-2.289,1.42-4.627,2.287-6.953
		c0.399-1.191,0.798-2.383,1.2-3.583c2.082-6.354,3.729-13.014,1.992-19.116c-0.229-0.846-0.513-1.66-0.852-2.442
		c-0.357-0.791-0.78-1.555-1.249-2.285c-0.942-1.461-2.097-2.797-3.465-4.023c-2.735-2.454-6.325-4.46-10.74-6.224
		c-0.313-0.127-0.708,0.079-0.879,0.457l-0.005,0.011c0,0-0.466,1.038-1.281,2.853c-0.389,0.917-0.991,1.968-1.6,3.212
		c-0.59,1.256-1.396,2.596-2.236,4.08c-2.183,3.871-5.255,8.354-8.908,12.775c-0.489,1.649-0.808,3.312-0.875,4.966
		c-0.191,3.279,0.708,6.659,3.808,10.029l0.001,0.052l-0.07,1.128l-1.143,0.044l-0.003-0.003l-0.046-0.002
		c-1.663-1.57-3.342-2.576-5.005-3.175c-1.669-0.604-3.294-0.766-4.981-0.731c-1.663,0.038-3.274,0.402-4.96,0.83
		c-1.044,0.847-2.087,1.676-3.118,2.468c-0.87,0.61-1.725,1.211-2.562,1.798c-0.417,0.296-0.83,0.588-1.238,0.877
		c-0.424,0.265-0.843,0.528-1.256,0.786c-0.823,0.523-1.623,1.031-2.398,1.522c-0.78,0.482-1.571,0.888-2.308,1.315
		c-0.741,0.421-1.45,0.824-2.125,1.208c-0.697,0.345-1.358,0.672-1.98,0.98c-1.246,0.608-2.302,1.198-3.234,1.563
		c-1.828,0.801-2.873,1.258-2.873,1.258l-0.011,0.005c-0.377,0.167-0.588,0.56-0.465,0.875c1.715,4.433,3.681,8.045,6.104,10.805
		c1.211,1.38,2.533,2.549,3.984,3.505c1.452,0.96,3.034,1.713,4.709,2.162c6.064,1.782,12.754,0.234,19.146-1.763
		c1.197-0.4,2.387-0.797,3.574-1.194l1.786-0.573l1.736-0.601c1.157-0.384,2.314-0.733,3.47-1.028
		c2.313-0.588,4.518-1.091,6.797-1.143c2.284-0.047,4.483,0.172,6.742,0.989c2.25,0.811,4.522,2.172,6.773,4.297l0.062,0.002
		l0.003,0.004l1.547-0.06l0.095-1.526l-0.001-0.07C248.258,247.321,247.041,242.747,247.3,238.308z"/>
</g>
</svg>
