<?xml version="1.0" encoding="utf-8"?>
<!-- Generator: Adobe Illustrator 17.0.0, SVG Export Plug-In . SVG Version: 6.00 Build 0)  -->
<!DOCTYPE svg PUBLIC "-//W3C//DTD SVG 1.1//EN" "http://www.w3.org/Graphics/SVG/1.1/DTD/svg11.dtd">
<svg version="1.1" id="Layer_1" xmlns="http://www.w3.org/2000/svg" xmlns:xlink="http://www.w3.org/1999/xlink" x="0px" y="0px"
	 width="300px" height="300px" viewBox="0 0 300 300" enable-background="new 0 0 300 300" xml:space="preserve">
<g>
	<polygon fill="#F15A29" points="105.812,125.946 87.823,149.351 70.129,125.946 	"/>
	<polygon fill="#F15A29" points="105.653,172.915 105.678,172.915 105.665,172.939 	"/>
	<path fill="#F15A29" d="M140.663,193.538L150,211.723l9.337-18.185H140.663z M169.974,172.915h-0.037l-10.6,20.623h19.398
		L169.974,172.915z M169.974,172.915h-0.037l-10.6,20.623h19.398L169.974,172.915z M169.974,172.915h-0.037l-10.6,20.623h19.398
		L169.974,172.915z M169.974,172.915h-0.037l-10.6,20.623h19.398L169.974,172.915z M169.974,172.915h-0.037l-10.6,20.623h19.398
		L169.974,172.915z M169.974,172.915h-0.037l-10.6,20.623h19.398L169.974,172.915z M169.974,172.915h-0.037l-10.6,20.623h19.398
		L169.974,172.915z M169.974,172.915h-0.037l-10.6,20.623h19.398L169.974,172.915z M169.974,172.915h-0.037l-10.6,20.623h19.398
		L169.974,172.915z M135.001,211.723L150,231.55l14.999-19.827H135.001z M169.974,172.915h-0.037l-10.6,20.623h19.398
		L169.974,172.915z M169.974,172.915h-0.037l-10.6,20.623h19.398L169.974,172.915z M169.974,172.915h-0.037l-10.6,20.623h19.398
		L169.974,172.915z M169.974,172.915h-0.037l-10.6,20.623h19.398L169.974,172.915z M169.974,172.915h-0.037l-10.6,20.623h19.398
		L169.974,172.915z M169.974,172.915h-0.037l-10.6,20.623h19.398L169.974,172.915z M169.974,172.915h-0.037l-10.6,20.623h19.398
		L169.974,172.915z M169.974,172.915h-0.037l-10.6,20.623h19.398L169.974,172.915z M178.736,193.538v0.012l0.012-0.012H178.736z
		 M130.516,125.946l5.294,9.105l4.718-9.105H130.516z M159.472,125.946l4.718,9.105l5.294-9.105H159.472z M146.116,135.075h7.769
		L150,125.946L146.116,135.075z M150,125.946l-3.884,9.129h7.769L150,125.946z M158.247,145.27l5.931-10.195h-10.293l4.326,10.195
		h-16.42l4.326-10.195h-10.293l5.931,10.195h-11.237l7.034,9.975l4.215-9.938L150,159.46l8.235-14.153l4.215,9.938l7.034-9.975
		H158.247z M135.81,135.05l-0.012,0.025h0.025L135.81,135.05z M125.627,135.075l4.534,10.869l0.355-0.674l5.281-10.195H125.627z
		 M164.19,135.05l-0.012,0.025h0.025L164.19,135.05z M169.57,125.946l4.804,9.129h-10.171l5.281,10.195l0.368,0.686l4.534-10.869
		l7.585,14.386l12.082-23.528H169.57z M158.235,145.307l4.215,9.938l7.034-9.975h-11.237L158.235,145.307z M164.178,135.075h0.025
		l-0.012-0.025L164.178,135.075z M150,125.946l-3.884,9.129h7.769L150,125.946z M140.515,159.46L150,172.915l9.485-13.455H140.515z
		 M140.515,159.46L150,172.915l9.485-13.455H140.515z M194.335,172.915l-12.364-23.442l-5.122,9.987l-6.899,13.418l-5.698-13.418
		h12.597l-6.997-13.504l-5.625,13.467l-1.777-4.179l-2.965,4.215h4.73l-5.612,13.455h11.335l-10.6,20.623h19.398l-8.762-20.623
		H194.335z M140.515,159.46L150,172.915l9.485-13.455H140.515z M140.515,159.46L150,172.915l9.485-13.455H140.515z M140.515,159.46
		L150,172.915l9.485-13.455H140.515z M141.398,172.915L150,193.538l8.602-20.623H141.398z M141.398,172.915L150,193.538
		l8.602-20.623H141.398z M141.398,172.915L150,193.538l8.602-20.623H141.398z M140.515,159.46l-2.965-4.215l-1.777,4.166
		l-5.612-13.467l-7.009,13.516h12.609l-5.71,13.418l-6.899-13.418l-5.122-9.975l-12.352,23.43h24.361l-8.762,20.623h19.386
		l-10.6-20.623h11.335l-5.6-13.455H140.515z M141.398,172.915L150,193.538l8.602-20.623H141.398z M141.398,172.915L150,193.538
		l8.602-20.623H141.398z M141.398,172.915L150,193.538l8.602-20.623H141.398z M140.515,159.46L150,172.915l9.485-13.455H140.515z
		 M105.947,125.946l12.082,23.54l7.597-14.411l4.816-9.129H105.947z M140.663,193.538L150,211.723l9.337-18.185H140.663z
		 M140.663,193.538L150,211.723l9.337-18.185H140.663z M140.663,193.538L150,211.723l9.337-18.185H140.663z M140.663,193.538
		L150,211.723l9.337-18.185H140.663z M140.663,193.538L150,211.723l9.337-18.185H140.663z M140.663,193.538L150,211.723
		l9.337-18.185H140.663z M140.663,193.538L150,211.723l9.337-18.185H140.663z M140.663,193.538L150,211.723l9.337-18.185H140.663z
		 M140.663,193.538L150,211.723l9.337-18.185H140.663z M121.264,193.563l0.012-0.024h-0.025L121.264,193.563z M140.663,193.538
		L150,211.723l9.337-18.185H140.663z M140.663,193.538L150,211.723l9.337-18.185H140.663z M140.663,193.538L150,211.723
		l9.337-18.185H140.663z M140.663,193.538L150,211.723l9.337-18.185H140.663z M140.663,193.538L150,211.723l9.337-18.185H140.663z
		 M140.663,193.538L150,211.723l9.337-18.185H140.663z M140.663,193.538L150,211.723l9.337-18.185H140.663z M140.663,193.538
		L150,211.723l9.337-18.185H140.663z M194.335,172.915v0.012l0.012-0.012H194.335z"/>
	<polygon fill="#F15A29" points="229.871,125.946 212.176,149.351 194.188,125.946 	"/>
	<polygon fill="#F15A29" points="165.673,88.841 134.327,88.841 150,68.45 	"/>
	<polygon fill="#F15A29" points="140.074,107.675 150,88.841 159.926,107.675 	"/>
	<polygon fill="#F15A29" points="180.108,107.675 169.533,125.872 159.926,107.675 	"/>
	<polygon fill="#F15A29" points="180.145,107.675 180.108,107.675 180.132,107.65 	"/>
	<polygon fill="#F15A29" points="119.868,107.65 119.892,107.675 119.855,107.675 	"/>
	<polygon fill="#F15A29" points="140.074,107.675 130.479,125.884 119.892,107.675 	"/>
	<polygon fill="#F15A29" points="87.823,149.351 105.653,172.915 69.712,172.915 	"/>
	<polygon fill="#F15A29" points="105.886,125.848 105.947,125.946 105.812,125.946 	"/>
	<polygon fill="#F15A29" points="130.516,125.946 130.443,125.946 130.479,125.884 	"/>
	<polygon fill="#F15A29" points="140.528,125.946 135.81,135.05 130.516,125.946 	"/>
	<polygon fill="#F15A29" points="159.472,125.946 140.528,125.946 150,107.675 	"/>
	<polygon fill="#F15A29" points="169.484,125.946 164.19,135.05 159.472,125.946 	"/>
	<polygon fill="#F15A29" points="169.57,125.946 169.484,125.946 169.533,125.872 	"/>
	<polygon fill="#F15A29" points="125.627,135.075 118.029,149.485 105.947,125.946 130.443,125.946 	"/>
	<polygon fill="#F15A29" points="153.884,135.075 146.116,135.075 150,125.946 	"/>
	<polygon fill="#F15A29" points="135.798,135.075 130.516,145.27 130.161,145.944 125.627,135.075 	"/>
	<polygon fill="#F15A29" points="135.822,135.075 135.798,135.075 135.81,135.05 	"/>
	<polygon fill="#F15A29" points="169.484,145.27 162.45,155.245 158.235,145.307 150,159.46 141.765,145.307 137.55,155.245 
		130.516,145.27 141.753,145.27 135.822,135.075 146.116,135.075 141.79,145.27 158.21,145.27 153.884,135.075 164.178,135.075 
		158.247,145.27 	"/>
	<polygon fill="#F15A29" points="164.202,135.075 164.178,135.075 164.19,135.05 	"/>
	<polygon fill="#F15A29" points="194.053,125.946 181.971,149.473 174.385,135.087 169.851,145.956 169.484,145.27 164.202,135.075 
		174.373,135.075 169.57,125.946 	"/>
	<polygon fill="#F15A29" points="141.398,172.915 105.678,172.915 118.029,149.485 123.152,159.46 130.051,172.878 135.761,159.46 
		123.152,159.46 130.161,145.944 135.773,159.411 137.55,155.245 140.515,159.46 135.798,159.46 	"/>
	<polygon fill="#F15A29" points="150,172.915 140.515,159.46 159.485,159.46 	"/>
	<polygon fill="#F15A29" points="194.335,172.915 158.602,172.915 164.215,159.46 159.485,159.46 162.45,155.245 164.227,159.423 
		169.851,145.956 176.848,159.46 164.251,159.46 169.949,172.878 176.848,159.46 181.971,149.473 	"/>
	<polygon fill="#F15A29" points="194.188,125.946 194.053,125.946 194.114,125.848 	"/>
	<polygon fill="#F15A29" points="230.288,172.915 194.347,172.915 212.176,149.351 	"/>
	<polygon fill="#F15A29" points="119.855,107.675 105.886,125.848 96.561,107.675 	"/>
	<polygon fill="#F15A29" points="140.074,107.675 130.479,125.884 119.892,107.675 	"/>
	<polygon fill="#F15A29" points="159.337,193.538 150,211.723 140.663,193.538 	"/>
	<polygon fill="#F15A29" points="130.516,125.946 130.443,125.946 130.479,125.884 	"/>
	<polygon fill="#F15A29" points="140.528,125.946 135.81,135.05 130.516,125.946 	"/>
	<polygon fill="#F15A29" points="159.472,125.946 140.528,125.946 150,107.675 	"/>
	<polygon fill="#F15A29" points="169.484,125.946 164.19,135.05 159.472,125.946 	"/>
	<polygon fill="#F15A29" points="169.57,125.946 169.484,125.946 169.533,125.872 	"/>
	<polygon fill="#F15A29" points="130.443,125.946 125.627,135.075 118.029,149.485 105.947,125.946 	"/>
	<polygon fill="#F15A29" points="141.398,172.915 130.063,172.915 130.051,172.878 135.761,159.46 123.152,159.46 130.161,145.944 
		135.773,159.411 137.55,155.245 140.515,159.46 135.798,159.46 	"/>
	<polygon fill="#F15A29" points="158.602,172.915 150,193.538 141.398,172.915 	"/>
	<polygon fill="#F15A29" points="150,172.915 140.515,159.46 159.485,159.46 	"/>
	<polygon fill="#F15A29" points="164.251,159.46 169.949,172.878 169.937,172.915 158.602,172.915 164.215,159.46 159.485,159.46 
		162.45,155.245 164.227,159.423 169.851,145.956 176.848,159.46 	"/>
	<polygon fill="#F15A29" points="153.884,135.075 146.116,135.075 150,125.946 	"/>
	<polygon fill="#F15A29" points="135.798,135.075 130.516,145.27 130.161,145.944 125.627,135.075 	"/>
	<polygon fill="#F15A29" points="135.822,135.075 135.798,135.075 135.81,135.05 	"/>
	<polygon fill="#F15A29" points="169.484,145.27 162.45,155.245 158.235,145.307 150,159.46 141.765,145.307 137.55,155.245 
		130.516,145.27 141.753,145.27 135.822,135.075 146.116,135.075 141.79,145.27 158.21,145.27 153.884,135.075 164.178,135.075 
		158.247,145.27 	"/>
	<polygon fill="#F15A29" points="164.202,135.075 164.178,135.075 164.19,135.05 	"/>
	<polygon fill="#F15A29" points="194.053,125.946 181.971,149.473 174.385,135.087 169.851,145.956 169.484,145.27 164.202,135.075 
		174.373,135.075 169.57,125.946 	"/>
	<polygon fill="#F15A29" points="180.108,107.675 169.533,125.872 159.926,107.675 	"/>
	<polygon fill="#F15A29" points="203.439,107.675 194.114,125.848 180.145,107.675 	"/>
	<polygon fill="#F15A29" points="159.926,107.675 140.074,107.675 150,88.841 	"/>
	<polygon fill="#F15A29" points="105.665,172.939 121.252,193.538 94.808,193.538 	"/>
	<polygon fill="#F15A29" points="130.479,125.884 130.516,125.946 130.443,125.946 	"/>
	<polygon fill="#F15A29" points="140.528,125.946 135.81,135.05 130.516,125.946 	"/>
	<polygon fill="#F15A29" points="159.472,125.946 140.528,125.946 150,107.675 	"/>
	<polygon fill="#F15A29" points="169.484,125.946 164.19,135.05 159.472,125.946 	"/>
	<polygon fill="#F15A29" points="169.57,125.946 169.484,125.946 169.533,125.872 	"/>
	<polygon fill="#F15A29" points="153.884,135.075 146.116,135.075 150,125.946 	"/>
	<polygon fill="#F15A29" points="135.798,135.075 130.516,145.27 130.161,145.944 125.627,135.075 	"/>
	<polygon fill="#F15A29" points="135.822,135.075 135.798,135.075 135.81,135.05 	"/>
	<polygon fill="#F15A29" points="169.484,145.27 162.45,155.245 158.235,145.307 150,159.46 141.765,145.307 137.55,155.245 
		130.516,145.27 141.753,145.27 135.822,135.075 146.116,135.075 141.79,145.27 158.21,145.27 153.884,135.075 164.178,135.075 
		158.247,145.27 	"/>
	<polygon fill="#F15A29" points="164.202,135.075 164.178,135.075 164.19,135.05 	"/>
	<polygon fill="#F15A29" points="174.385,135.075 174.385,135.087 169.851,145.956 169.484,145.27 164.202,135.075 	"/>
	<polygon fill="#F15A29" points="130.063,172.915 140.663,193.538 121.277,193.538 130.038,172.915 105.678,172.915 
		118.029,149.485 123.152,159.46 130.051,172.878 135.761,159.46 123.152,159.46 130.161,145.944 135.773,159.411 137.55,155.245 
		140.515,159.46 135.798,159.46 141.398,172.915 	"/>
	<polygon fill="#F15A29" points="158.602,172.915 150,193.538 141.398,172.915 	"/>
	<polygon fill="#F15A29" points="150,172.915 140.515,159.46 159.485,159.46 	"/>
	<polygon fill="#F15A29" points="169.974,172.915 178.736,193.538 159.337,193.538 169.937,172.915 158.602,172.915 164.215,159.46 
		159.485,159.46 162.45,155.245 164.227,159.423 169.851,145.956 176.848,159.46 164.251,159.46 169.949,172.878 176.848,159.46 
		181.971,149.473 194.335,172.915 	"/>
	<polygon fill="#F15A29" points="205.204,193.538 178.748,193.538 194.335,172.927 	"/>
	<polygon fill="#F15A29" points="134.327,88.841 119.868,107.65 108.937,88.841 	"/>
	<polygon fill="#F15A29" points="140.074,107.675 130.479,125.884 119.892,107.675 	"/>
	<polygon fill="#F15A29" points="130.516,125.946 140.528,125.946 135.81,135.05 	"/>
	<polygon fill="#F15A29" points="153.884,135.075 146.116,135.075 150,125.946 	"/>
	<polygon fill="#F15A29" points="164.178,135.075 158.247,145.27 158.235,145.307 150,159.46 141.765,145.307 141.753,145.27 
		135.822,135.075 146.116,135.075 141.79,145.27 158.21,145.27 153.884,135.075 	"/>
	<polygon fill="#F15A29" points="159.472,125.946 140.528,125.946 150,107.675 	"/>
	<polygon fill="#F15A29" points="169.484,125.946 164.19,135.05 159.472,125.946 	"/>
	<polygon fill="#F15A29" points="159.926,107.675 140.074,107.675 150,88.841 	"/>
	<polygon fill="#F15A29" points="180.108,107.675 169.533,125.872 159.926,107.675 	"/>
	<polygon fill="#F15A29" points="191.063,88.841 180.132,107.65 165.673,88.841 	"/>
	<path fill="#F15A29" d="M140.663,193.538L150,211.723l9.337-18.185H140.663z M140.515,159.46L150,172.915l9.485-13.455H140.515z
		 M178.736,193.538l-8.762-20.623l-0.024-0.037l-5.698-13.418l-0.025-0.037l-1.777-4.179l-2.965,4.215h4.73l-5.612,13.455h11.335
		l-10.6,20.623H178.736z M140.515,159.46L150,172.915l9.485-13.455H140.515z M140.515,159.46L150,172.915l9.485-13.455H140.515z
		 M141.398,172.915L150,193.538l8.602-20.623H141.398z M141.398,172.915L150,193.538l8.602-20.623H141.398z M140.515,159.46
		l-2.965-4.215l-1.777,4.166l-0.012,0.049l-5.71,13.418l-0.012,0.037l-8.762,20.623h19.386l-10.6-20.623h11.335l-5.6-13.455H140.515
		z M141.398,172.915L150,193.538l8.602-20.623H141.398z M141.398,172.915L150,193.538l8.602-20.623H141.398z M140.515,159.46
		L150,172.915l9.485-13.455H140.515z M158.21,145.27h-16.42l-0.024,0.037L150,159.46l8.235-14.153L158.21,145.27z M150,125.946
		l-3.884,9.129h7.769L150,125.946z M178.736,193.551l-13.737,18.173h21.469L178.736,193.551z M121.264,193.563l-7.72,18.16h21.457
		L121.264,193.563z"/>
	<polygon fill="#F15A29" points="137.55,155.245 140.515,159.46 135.798,159.46 135.773,159.411 	"/>
	<polygon fill="#F15A29" points="158.602,172.915 150,193.538 141.398,172.915 	"/>
	<polygon fill="#F15A29" points="159.485,159.46 150,172.915 140.515,159.46 	"/>
	<polygon fill="#F15A29" points="164.227,159.423 164.215,159.46 159.485,159.46 162.45,155.245 	"/>
	<polygon fill="#F15A29" points="135.798,135.075 130.516,145.27 130.161,145.944 125.627,135.075 	"/>
	<polygon fill="#F15A29" points="169.484,145.27 162.45,155.245 158.235,145.307 150,159.46 141.765,145.307 137.55,155.245 
		130.516,145.27 141.753,145.27 135.822,135.075 146.116,135.075 141.79,145.27 158.21,145.27 153.884,135.075 164.178,135.075 
		158.247,145.27 	"/>
	<polygon fill="#F15A29" points="174.385,135.075 174.385,135.087 169.851,145.956 169.484,145.27 164.202,135.075 	"/>
	<polygon fill="#F15A29" points="159.472,125.946 140.528,125.946 150,107.675 	"/>
	<polygon fill="#F15A29" points="140.515,159.46 123.152,159.46 130.161,145.944 135.773,159.411 137.55,155.245 	"/>
	<polygon fill="#F15A29" points="153.884,135.075 146.116,135.075 150,125.946 	"/>
	<polygon fill="#F15A29" points="164.202,135.075 164.178,135.075 164.19,135.05 	"/>
	<polygon fill="#F15A29" points="135.81,135.05 135.822,135.075 135.798,135.075 	"/>
	<polygon fill="#F15A29" points="169.484,145.27 162.45,155.245 158.235,145.307 150,159.46 141.765,145.307 137.55,155.245 
		130.516,145.27 141.753,145.27 135.822,135.075 146.116,135.075 141.79,145.27 158.21,145.27 153.884,135.075 164.178,135.075 
		158.247,145.27 	"/>
	<polygon fill="#F15A29" points="176.848,159.46 159.485,159.46 162.45,155.245 164.227,159.423 169.851,145.956 	"/>
	<polygon fill="#F15A29" points="159.485,159.46 150,172.915 140.515,159.46 	"/>
	<polygon fill="#F15A29" points="169.484,145.27 162.45,155.245 158.235,145.307 150,159.46 141.765,145.307 137.55,155.245 
		130.516,145.27 	"/>
</g>
</svg>
