<?xml version="1.0" encoding="utf-8"?>
<!-- Generator: Adobe Illustrator 17.0.0, SVG Export Plug-In . SVG Version: 6.00 Build 0)  -->
<!DOCTYPE svg PUBLIC "-//W3C//DTD SVG 1.1//EN" "http://www.w3.org/Graphics/SVG/1.1/DTD/svg11.dtd">
<svg version="1.1" id="Layer_1" xmlns="http://www.w3.org/2000/svg" xmlns:xlink="http://www.w3.org/1999/xlink" x="0px" y="0px"
	 width="628px" height="248px" viewBox="0 0 628 248" enable-background="new 0 0 628 248" xml:space="preserve">
<path fill="#6F6E6E" d="M559.106,423.109c-2.193-2.286-0.019-5.513-1.703-7.909c0.277-0.699,0.554-1.399,0.832-2.098
	C560.318,416.282,558.129,419.833,559.106,423.109z"/>
<path fill="#414042" d="M147.197,137.732h-18.156c-2.038,0-3.696-0.509-4.975-1.528c-1.281-1.018-2.241-2.284-2.881-3.797
	l-9.427-25.75H59.472l-9.427,25.75c-0.467,1.338-1.368,2.561-2.706,3.666c-1.34,1.106-2.998,1.659-4.975,1.659H24.033L73.7,11.513
	h23.917L147.197,137.732z M105.735,90.073L90.372,48.087c-0.757-1.862-1.542-4.073-2.357-6.634c-0.816-2.56-1.63-5.325-2.444-8.292
	c-0.757,2.968-1.543,5.748-2.357,8.336c-0.816,2.59-1.602,4.845-2.357,6.765L65.582,90.073H105.735z"/>
<rect x="157.409" y="48.175" fill="#414042" width="21.647" height="89.558"/>
<path fill="#414042" d="M221.217,59.173c1.803-1.803,3.709-3.477,5.717-5.019c2.007-1.542,4.131-2.85,6.372-3.928
	c2.24-1.076,4.64-1.92,7.202-2.531c2.56-0.611,5.353-0.917,8.38-0.917c4.888,0,9.222,0.829,13.006,2.488
	c3.782,1.659,6.939,3.987,9.47,6.983c2.531,2.998,4.452,6.576,5.761,10.736c1.31,4.161,1.964,8.744,1.964,13.748v56.999h-21.56
	V80.733c0-5.469-1.252-9.703-3.753-12.7c-2.503-2.996-6.315-4.496-11.435-4.496c-3.725,0-7.216,0.845-10.474,2.531
	c-3.26,1.689-6.344,3.987-9.253,6.896v64.768h-21.56V48.175h13.18c2.793,0,4.627,1.309,5.499,3.928L221.217,59.173z"/>
<path fill="#414042" d="M377.286,8.022v129.71h-13.181c-2.851,0-4.655-1.31-5.41-3.929l-1.834-8.64
	c-3.609,4.132-7.755,7.478-12.437,10.037c-4.686,2.561-10.142,3.842-16.367,3.842c-4.889,0-9.37-1.019-13.442-3.056
	c-4.074-2.037-7.581-4.989-10.519-8.859c-2.939-3.87-5.209-8.655-6.808-14.359c-1.601-5.702-2.4-12.22-2.4-19.553
	c0-6.633,0.902-12.801,2.706-18.505c1.803-5.702,4.393-10.649,7.769-14.839c3.374-4.19,7.419-7.464,12.133-9.82
	c4.713-2.357,10.008-3.535,15.886-3.535c5.004,0,9.281,0.786,12.831,2.357c3.55,1.571,6.72,3.696,9.513,6.372V8.022H377.286z
	 M355.726,71.044c-2.444-2.967-5.105-5.063-7.987-6.284c-2.878-1.222-5.979-1.834-9.295-1.834c-3.26,0-6.198,0.611-8.816,1.834
	c-2.619,1.222-4.859,3.07-6.721,5.543c-1.864,2.474-3.289,5.617-4.278,9.427c-0.99,3.812-1.484,8.307-1.484,13.486
	c0,5.237,0.422,9.676,1.265,13.311c0.843,3.638,2.051,6.606,3.623,8.904c1.571,2.299,3.492,3.958,5.761,4.975
	c2.269,1.019,4.801,1.528,7.594,1.528c4.48,0,8.292-0.93,11.435-2.793c3.143-1.862,6.109-4.509,8.902-7.943V71.044z"/>
<path fill="#414042" d="M420.143,57.776c3.491-3.258,7.333-5.906,11.522-7.943c4.189-2.036,9.106-3.055,14.751-3.055
	c4.888,0,9.224,0.829,13.007,2.488c3.782,1.659,6.94,3.987,9.47,6.983c2.532,2.998,4.451,6.576,5.761,10.736
	c1.31,4.161,1.965,8.744,1.965,13.748v56.999h-21.56V80.733c0-5.469-1.253-9.703-3.754-12.7c-2.502-2.996-6.314-4.496-11.435-4.496
	c-3.724,0-7.215,0.845-10.474,2.531c-3.259,1.689-6.342,3.987-9.252,6.896v64.768h-21.56V8.022h21.56V57.776z"/>
<path fill="#414042" d="M517.38,59.087c2.794-5.353,3.027-6.475,6.868-9.53c3.842-3.055,11.464-3.042,16.701-3.042
	c4.131,0,7.449,0.903,9.951,2.706l-1.397,16.149c-0.291,1.047-0.712,1.789-1.265,2.226c-0.554,0.437-1.296,0.654-2.226,0.654
	c-0.873,0-2.168-0.145-3.884-0.436c-1.718-0.291-3.392-0.437-5.019-0.437c-2.388,0-4.51,0.349-6.372,1.047
	c-1.864,0.699-3.535,1.703-5.019,3.012c-1.484,1.31-2.794,2.896-3.928,4.758c-1.135,1.863-2.198,3.986-3.187,6.372v55.166h-21.56
	V48.175H509.7c2.21,0,4.344,0.951,5.217,1.736c0.873,0.786,2.162,1.703,2.454,3.739L517.38,59.087z"/>
<rect x="562.857" y="48.175" fill="#414042" width="21.647" height="89.558"/>
<rect x="157.409" y="18.5" fill="#F15A29" width="21.647" height="21.647"/>
<rect x="562.857" y="18.5" fill="#F15A29" width="21.647" height="21.647"/>
<g>
	<path fill="#414042" d="M24.155,158.082h4.778v33.449h-4.778V158.082z"/>
	<path fill="#414042" d="M68.213,158.082v33.449h-3.918l-20.07-24.943v24.943h-4.778v-33.449h3.919l20.069,24.943v-24.943H68.213z"
		/>
	<path fill="#414042" d="M107.494,158.082v33.449h-3.918l-20.07-24.943v24.943h-4.778v-33.449h3.919l20.069,24.943v-24.943H107.494z
		"/>
	<path fill="#414042" d="M115.285,174.806c0-9.795,7.55-17.106,17.824-17.106c10.178,0,17.728,7.263,17.728,17.106
		s-7.55,17.106-17.728,17.106C122.834,191.912,115.285,184.601,115.285,174.806z M146.058,174.806
		c0-7.407-5.543-12.853-12.95-12.853c-7.502,0-13.044,5.447-13.044,12.853c0,7.407,5.542,12.853,13.044,12.853
		C140.515,187.659,146.058,182.213,146.058,174.806z"/>
	<path fill="#414042" d="M186.628,158.082l-14.669,33.449h-4.73l-14.718-33.449h5.16l12.042,27.476l12.137-27.476H186.628z"/>
	<path fill="#414042" d="M211.622,183.169h-17.775l-3.68,8.362h-4.921l15.147-33.449h4.73l15.195,33.449h-5.017L211.622,183.169z
		 M209.95,179.346l-7.216-16.39l-7.214,16.39H209.95z"/>
	<path fill="#414042" d="M230.739,162.239H219.27v-4.158h27.666v4.158h-11.467v29.291h-4.73V162.239z"/>
	<path fill="#414042" d="M252.624,158.082h4.778v33.449h-4.778V158.082z"/>
	<path fill="#414042" d="M265.192,174.806c0-9.795,7.55-17.106,17.824-17.106c10.178,0,17.728,7.263,17.728,17.106
		s-7.55,17.106-17.728,17.106C272.742,191.912,265.192,184.601,265.192,174.806z M295.966,174.806
		c0-7.407-5.543-12.853-12.95-12.853c-7.502,0-13.044,5.447-13.044,12.853c0,7.407,5.542,12.853,13.044,12.853
		C290.422,187.659,295.966,182.213,295.966,174.806z"/>
	<path fill="#414042" d="M337.301,158.082v33.449h-3.918l-20.07-24.943v24.943h-4.778v-33.449h3.919l20.069,24.943v-24.943H337.301z
		"/>
	<path fill="#414042" d="M344.758,187.707l1.768-3.727c2.485,2.246,6.738,3.871,11.039,3.871c5.781,0,8.266-2.246,8.266-5.161
		c0-8.171-20.26-3.01-20.26-15.434c0-5.16,4.013-9.556,12.806-9.556c3.919,0,7.98,1.052,10.751,2.963l-1.577,3.822
		c-2.915-1.863-6.212-2.723-9.174-2.723c-5.687,0-8.123,2.388-8.123,5.303c0,8.171,20.26,3.058,20.26,15.338
		c0,5.112-4.11,9.509-12.949,9.509C352.451,191.912,347.434,190.192,344.758,187.707z"/>
	<path fill="#414042" d="M418.299,169.742c0,7.263-5.256,11.658-13.953,11.658h-8.267v10.131h-4.778v-33.449h13.045
		C413.043,158.082,418.299,162.478,418.299,169.742z M413.521,169.742c0-4.778-3.201-7.502-9.318-7.502h-8.124v15.004h8.124
		C410.319,177.244,413.521,174.52,413.521,169.742z"/>
	<path fill="#414042" d="M454.52,158.082l-14.669,33.449h-4.73l-14.718-33.449h5.16l12.042,27.476l12.137-27.476H454.52z"/>
	<path fill="#414042" d="M466.231,162.239h-11.469v-4.158h27.666v4.158h-11.467v29.291h-4.73V162.239z"/>
	<path fill="#414042" d="M501.449,158.082h4.778v29.291h18.11v4.158h-22.888V158.082z"/>
	<path fill="#414042" d="M533.849,162.239h-11.469v-4.158h27.667v4.158H538.58v29.291h-4.73V162.239z"/>
	<path fill="#414042" d="M555.735,158.082h14.096c10.752,0,18.062,6.786,18.062,16.724c0,9.94-7.31,16.724-18.062,16.724h-14.096
		V158.082z M569.544,187.373c8.267,0,13.571-5.065,13.571-12.567c0-7.502-5.303-12.567-13.571-12.567h-9.031v25.134H569.544z"/>
</g>
<g>
	<path fill="#414042" d="M282.65,222.519c0-0.632,0.078-1.29,0.211-2l2.079-10.476h2.632l-2.106,10.449
		c-0.132,0.632-0.184,1.212-0.184,1.738c0,2.71,1.605,4.106,4.527,4.106c3.264,0,5.237-1.817,6.053-5.87l2.08-10.423h2.579
		l-2.106,10.608c-1.08,5.369-4.079,8.027-8.844,8.027C285.202,228.679,282.65,226.362,282.65,222.519z"/>
	<path fill="#414042" d="M317.107,219.018c0,0.501-0.054,1.053-0.159,1.633l-1.552,7.817h-2.527l1.552-7.817
		c0.08-0.421,0.132-0.817,0.132-1.158c0-1.817-1.053-2.843-3.237-2.843c-2.712,0-4.554,1.447-5.159,4.448l-1.474,7.37h-2.527
		l2.763-13.95h2.422l-0.342,1.79c1.289-1.316,3.053-1.922,5.054-1.922C315.212,214.386,317.107,216.045,317.107,219.018z"/>
	<path fill="#414042" d="M324.244,208.938h2.527l-3.896,19.53h-2.527L324.244,208.938z"/>
	<path fill="#414042" d="M327.929,222.598c0-4.711,3.422-8.212,8.185-8.212c3.975,0,6.528,2.343,6.528,6.001
		c0,4.738-3.395,8.239-8.158,8.239C330.509,228.626,327.929,226.231,327.929,222.598z M340.09,220.519
		c0-2.474-1.5-3.922-4.159-3.922c-3.132,0-5.448,2.448-5.448,5.896c0,2.448,1.5,3.922,4.158,3.922
		C337.799,226.415,340.09,223.967,340.09,220.519z"/>
	<path fill="#414042" d="M344.909,222.598c0-4.711,3.422-8.212,8.212-8.212c2.685,0,4.659,1.001,5.738,3.028l-2.131,1.184
		c-0.737-1.342-2-2-3.79-2c-3.159,0-5.475,2.448-5.475,5.896c0,2.448,1.5,3.922,4.184,3.922c1.658,0,3.185-0.659,4.159-1.973
		l1.842,1.315c-1.29,1.79-3.607,2.87-6.106,2.87C347.489,228.626,344.909,226.231,344.909,222.598z"/>
	<path fill="#414042" d="M368.76,220.387l4.975,8.081h-2.922l-4.027-6.58l-3.423,2.659l-0.788,3.921h-2.527l3.896-19.53h2.527
		l-2.475,12.424l8.66-6.843h3.553L368.76,220.387z"/>
	<path fill="#414042" d="M378.844,214.518h2.527l-2.763,13.95h-2.527L378.844,214.518z M379.265,210.307
		c0-0.974,0.737-1.763,1.816-1.763c0.922,0,1.606,0.683,1.606,1.474c0,1.079-0.764,1.816-1.842,1.816
		C379.923,211.833,379.265,211.149,379.265,210.307z"/>
	<path fill="#414042" d="M398.639,219.018c0,0.501-0.054,1.053-0.159,1.633l-1.552,7.817H394.4l1.552-7.817
		c0.08-0.421,0.132-0.817,0.132-1.158c0-1.817-1.053-2.843-3.237-2.843c-2.712,0-4.554,1.447-5.159,4.448l-1.474,7.37h-2.527
		l2.763-13.95h2.422l-0.342,1.79c1.289-1.316,3.053-1.922,5.054-1.922C396.744,214.386,398.639,216.045,398.639,219.018z"/>
	<path fill="#414042" d="M418.067,214.518l-2.396,12.055c-1,5.054-3.711,7.159-8.343,7.159c-2.659,0-4.87-0.711-6.371-1.975
		l1.396-1.947c1.08,0.999,2.975,1.685,5.159,1.685c3.291,0,4.948-1.501,5.553-4.527l0.211-1.001
		c-1.263,1.212-2.974,1.922-5.054,1.922c-3.685,0-6.212-2.158-6.212-5.685c0-4.422,3.291-7.818,7.95-7.818
		c2.289,0,4.29,0.842,5.21,2.686l0.501-2.554H418.067z M414.198,220.203c0-2.238-1.527-3.607-4.159-3.607
		c-3.185,0-5.475,2.291-5.475,5.449c0,2.264,1.552,3.632,4.159,3.632C411.907,225.678,414.198,223.389,414.198,220.203z"/>
	<path fill="#414042" d="M447.603,210.043l-3.685,18.425h-2.158l-8.238-14.188l-2.817,14.188h-2.632l3.685-18.425h2.158
		l8.239,14.188l2.816-14.188H447.603z"/>
	<path fill="#414042" d="M451.818,222.282v0.159c0,2.553,1.421,3.974,4.422,3.974c1.737,0,3.316-0.632,4.317-1.606l1.079,1.817
		c-1.369,1.29-3.474,2-5.606,2c-4.132,0-6.686-2.369-6.686-6.054c0-4.738,3.316-8.186,7.869-8.186c3.765,0,6.239,2.265,6.239,6.028
		c0,0.659-0.078,1.29-0.184,1.868H451.818z M452.081,220.441h9.002c0.131-2.554-1.5-3.949-3.975-3.949
		C454.581,216.491,452.713,218.019,452.081,220.441z"/>
	<path fill="#414042" d="M489.46,214.518l-7.817,13.95h-2.474l-2.133-10.554l-6.053,10.554h-2.422l-2.659-13.95h2.289l2.054,11.055
		l6.317-11.055h2.157l2.106,11.055l6.239-11.055H489.46z"/>
	<path fill="#414042" d="M516.813,210.043l-11.792,18.425h-2.579l-4.422-18.425h2.71l3.58,15.161l9.766-15.161H516.813z"/>
	<path fill="#414042" d="M530.239,214.518l-2.763,13.95h-2.422l0.342-1.71c-1.237,1.184-2.921,1.868-4.921,1.868
		c-3.553,0-6.159-2.264-6.159-6.028c0-4.789,3.369-8.212,7.896-8.212c2.396,0,4.132,0.869,5.028,2.501l0.473-2.369H530.239z
		 M526.476,220.519c0-2.474-1.501-3.922-4.159-3.922c-3.133,0-5.449,2.448-5.449,5.896c0,2.448,1.501,3.922,4.16,3.922
		C524.186,226.415,526.476,223.967,526.476,220.519z"/>
	<path fill="#414042" d="M536.456,208.938h2.527l-3.896,19.53h-2.527L536.456,208.938z"/>
	<path fill="#414042" d="M555.933,214.518l-2.764,13.95h-2.422l0.343-1.79c-1.29,1.316-3.053,1.948-5.001,1.948
		c-3.053,0-5.001-1.711-5.001-4.685c0-0.501,0.053-1.027,0.158-1.605l1.554-7.818h2.527l-1.554,7.844
		c-0.08,0.421-0.131,0.817-0.131,1.184c0,1.79,1.053,2.817,3.184,2.817c2.632,0,4.502-1.474,5.106-4.448l1.474-7.397H555.933z"/>
	<path fill="#414042" d="M560.701,222.282v0.159c0,2.553,1.421,3.974,4.422,3.974c1.737,0,3.316-0.632,4.317-1.606l1.08,1.817
		c-1.369,1.29-3.474,2-5.607,2c-4.133,0-6.686-2.369-6.686-6.054c0-4.738,3.316-8.186,7.871-8.186c3.763,0,6.237,2.265,6.237,6.028
		c0,0.659-0.08,1.29-0.185,1.868H560.701z M560.964,220.441h9.002c0.132-2.554-1.501-3.949-3.974-3.949
		C563.465,216.491,561.595,218.019,560.964,220.441z"/>
	<path fill="#414042" d="M573.259,227.02l1.131-2c1.08,0.869,2.948,1.423,4.843,1.423c2.422,0,3.659-0.764,3.659-2.054
		c0-2.71-7.738-0.763-7.738-5.475c0-2.763,2.5-4.527,6.317-4.527c1.842,0,3.738,0.475,4.87,1.263l-1.001,2
		c-1.131-0.788-2.684-1.104-4.106-1.104c-2.342,0-3.553,0.868-3.553,2.079c0,2.816,7.713,0.842,7.713,5.475
		c0,2.895-2.606,4.527-6.397,4.527C576.628,228.626,574.39,227.942,573.259,227.02z"/>
</g>
</svg>
